<svg xmlns="http://www.w3.org/2000/svg" viewBox="0 0 322.37 460.17"><defs><style>.cls-1{fill:#231f20;}</style></defs><title>Asset 5</title><g id="Layer_2" data-name="Layer 2"><g id="Layer_2-2" data-name="Layer 2"><path class="cls-1" d="M322.37,303V53.54A53.54,53.54,0,0,0,268.83,0H53.54A53.54,53.54,0,0,0,0,53.54V303a53.54,53.54,0,0,0,53.54,53.54h1L13.44,460.17H53.08L65.45,429H256.92l12.37,31.17h39.64l-41.1-103.62h1A53.54,53.54,0,0,0,322.37,303Zm-64.74,16.65a28.28,28.28,0,1,1,28.28-28.28A28.28,28.28,0,0,1,257.63,319.66ZM101.94,22.74H220.43V52.85H101.94ZM36.46,102.86A25.84,25.84,0,0,1,62.3,77H260.07a25.84,25.84,0,0,1,25.84,25.84v83.8a25.84,25.84,0,0,1-25.84,25.84H62.3a25.84,25.84,0,0,1-25.84-25.84Zm0,188.52a28.28,28.28,0,1,1,28.28,28.28A28.28,28.28,0,0,1,36.46,291.38ZM242.31,392.15H80.06l14.12-35.6h134Z"/></g></g></svg>