<svg xmlns="http://www.w3.org/2000/svg" viewBox="0 0 204.63 298.04"><defs><style>.cls-1{fill:#231f20;}</style></defs><title>Asset 3</title><g id="Layer_2" data-name="Layer 2"><g id="Layer_2-2" data-name="Layer 2"><path class="cls-1" d="M62,201.92c-30.38,11.4-46.51,36.89-46.51,74.41v3.11L52.71,298V282.53a43.4,43.4,0,0,1,43.4-43.4h0Z"/><path class="cls-1" d="M142.62,201.92l-34.11,37.21h0a43.4,43.4,0,0,1,43.4,43.4V298l37.2-18.6v-3.11C189.12,238.81,173,213.32,142.62,201.92Z"/><path class="cls-1" d="M163.35,117.24a49.62,49.62,0,0,0-35.08-14.53H76.35a49.61,49.61,0,0,0-35.07,14.53L0,158.52l15.5,37.2,49.61-49.6v46.5h74.41v-46.5l49.6,49.6,15.51-37.2Z"/><circle class="cls-1" cx="102.31" cy="45.35" r="45.35"/></g></g></svg>