<svg fill="#000000" xmlns="http://www.w3.org/2000/svg" viewBox="0 0 26 26" width="26px" height="26px"><path d="M 9 1 C 7.34375 1 6 2.34375 6 4 C 6 5.65625 7.34375 7 9 7 C 10.65625 7 12 5.65625 12 4 C 12 2.34375 10.65625 1 9 1 Z M 9 7 C 8.699219 7 8.394531 6.992188 8.09375 7.09375 C 8.695313 7.894531 9 8.898438 9 10 C 9 10.398438 8.90625 10.789063 8.90625 11.1875 C 9.707031 9.988281 11 9.199219 12.5 9 C 11.800781 7.800781 10.5 7 9 7 Z M 17 1 C 15.34375 1 14 2.34375 14 4 C 14 5.65625 15.34375 7 17 7 C 18.65625 7 20 5.65625 20 4 C 20 2.34375 18.65625 1 17 1 Z M 17 7 C 15.5 7 14.199219 7.800781 13.5 9 C 15 9.199219 16.292969 9.988281 17.09375 11.1875 C 17.09375 10.789063 17 10.398438 17 10 C 17 8.898438 17.304688 7.894531 17.90625 7.09375 C 17.605469 6.992188 17.300781 7 17 7 Z M 4 7 C 2.34375 7 1 8.34375 1 10 C 1 11.65625 2.34375 13 4 13 C 5.65625 13 7 11.65625 7 10 C 7 8.34375 5.65625 7 4 7 Z M 4 13 C 1.800781 13 0 14.800781 0 17 L 0 19.1875 C 0 19.1875 1 20 4 20 C 7 20 8 19.1875 8 19.1875 L 8 17 C 8 14.800781 6.199219 13 4 13 Z M 22 7 C 20.34375 7 19 8.34375 19 10 C 19 11.65625 20.34375 13 22 13 C 23.65625 13 25 11.65625 25 10 C 25 8.34375 23.65625 7 22 7 Z M 22 13 C 19.800781 13 18 14.800781 18 17 L 18 19.1875 C 18 19.1875 19 20 22 20 C 25 20 26 19.1875 26 19.1875 L 26 17 C 26 14.800781 24.199219 13 22 13 Z M 13 11 C 11.34375 11 10 12.34375 10 14 C 10 15.65625 11.34375 17 13 17 C 14.65625 17 16 15.65625 16 14 C 16 12.34375 14.65625 11 13 11 Z M 13 17 C 10.800781 17 9 18.800781 9 21 L 9 23.1875 C 9 23.1875 10 24 13 24 C 16 24 17 23.1875 17 23.1875 L 17 21 C 17 18.800781 15.199219 17 13 17 Z"/></svg>