<svg xmlns="http://www.w3.org/2000/svg" viewBox="0 0 352.07 452.38"><defs><style>.cls-1{fill:#231f20;}</style></defs><title>Asset 7</title><g id="Layer_2" data-name="Layer 2"><g id="Layer_2-2" data-name="Layer 2"><path class="cls-1" d="M207.2,83a41.93,41.93,0,1,0-32.33-49.71A41.93,41.93,0,0,0,207.2,83Z"/><path class="cls-1" d="M319.67,281.43a42.8,42.8,0,0,0-36.28-26l-35.3-1.62-.48-.86a134,134,0,0,0-27.79-33.6l4.8-29,7.07-42.76c3.42-20.67-10.32-42.12-30.75-46.78a40.4,40.4,0,0,0-23.12,1.49l-59,17.74a44.54,44.54,0,0,0-31.31,34.74l-2.6,41A133,133,0,0,0,.25,311.57c-4.42,73.09,51.44,136.14,124.53,140.56S260.92,400.69,265.34,327.6a133.12,133.12,0,0,0-.44-21.36l18,.08L314.44,428l37.63-9.25Zm-197.09-117,24.73-2.87-4.24,25.6L140.8,187a132.51,132.51,0,0,0-20,.29ZM231.79,325.57A99.18,99.18,0,1,1,82.44,234.18l-1.51,23.94,34.76-2.72,2.57-33.92A99.18,99.18,0,0,1,231.79,325.57Z"/></g></g></svg>