<svg xmlns="http://www.w3.org/2000/svg" viewBox="0 0 438.8 438.8"><defs><style>.cls-1{fill:#231f20;}</style></defs><title>Asset 2</title><g id="Layer_2" data-name="Layer 2"><g id="Layer_2-2" data-name="Layer 2"><path class="cls-1" d="M219.4,36.57a182.88,182.88,0,0,1,71.16,351.31,182.89,182.89,0,0,1-142.31-337A181.66,181.66,0,0,1,219.4,36.57M219.4,0C98.23,0,0,98.23,0,219.4S98.23,438.8,219.4,438.8s219.4-98.23,219.4-219.4S340.57,0,219.4,0Z"/><circle class="cls-1" cx="219.4" cy="100.51" r="27.43"/><polygon class="cls-1" points="159.07 340.67 159.07 304.64 208.43 304.64 208.43 198.05 159.07 198.05 159.07 162.03 247.2 162.03 247.2 304.64 288.34 304.64 288.34 340.67 159.07 340.67"/></g></g></svg>