<svg fill="#000000" xmlns="http://www.w3.org/2000/svg" viewBox="0 0 26 26" width="26px" height="26px"><path d="M 6.5 0 C 5.121094 0 4 1.121094 4 2.5 C 4 3.878906 5.121094 5 6.5 5 C 7.878906 5 9 3.878906 9 2.5 C 9 1.121094 7.878906 0 6.5 0 Z M 20 0 C 17.800781 0 16 1.800781 16 4 C 16 6.199219 17.800781 8 20 8 C 22.199219 8 24 6.199219 24 4 C 24 1.800781 22.199219 0 20 0 Z M 20 1.40625 L 21 1.59375 L 20.59375 3.6875 L 22.3125 4.5 L 21.8125 5.40625 L 19.8125 4.40625 C 19.613281 4.304688 19.5 4.105469 19.5 3.90625 Z M 2.875 5.96875 C 2.832031 5.976563 2.789063 5.988281 2.75 6 C 2.214844 6.136719 1.894531 6.683594 2.03125 7.21875 L 4.125 16.40625 C 4.128906 16.414063 4.121094 16.429688 4.125 16.4375 C 4.738281 19.082031 7.152344 21 9.90625 21 L 14 21 C 14.359375 21.003906 14.695313 20.816406 14.878906 20.503906 C 15.058594 20.191406 15.058594 19.808594 14.878906 19.496094 C 14.695313 19.183594 14.359375 18.996094 14 19 L 9.90625 19 C 8.070313 19 6.457031 17.707031 6.0625 15.96875 L 3.96875 6.78125 C 3.875 6.265625 3.394531 5.910156 2.875 5.96875 Z M 7.875 6.125 C 7.710938 6.128906 7.570313 6.148438 7.40625 6.1875 C 6.007813 6.488281 5.199219 7.886719 5.5 9.1875 L 7.1875 15.6875 C 7.488281 16.988281 8.695313 17.90625 10.09375 17.90625 L 15.59375 17.90625 L 17.59375 24.90625 C 17.792969 25.507813 18.398438 25.90625 19 25.90625 C 20 25.90625 20.707031 24.992188 20.40625 24.09375 L 18.3125 16.40625 C 18.113281 15.507813 17.304688 14.90625 16.40625 14.90625 L 12.1875 14.90625 L 12.1875 15 L 10.40625 8 C 10.144531 6.863281 9.019531 6.09375 7.875 6.125 Z"/></svg>