<svg xmlns="http://www.w3.org/2000/svg" viewBox="0 0 314.1 51.4"><defs><style>.cls-1{fill:#9fc9eb;}</style></defs><title>Asset 3</title><g id="Layer_2" data-name="Layer 2"><g id="Layer_1-2" data-name="Layer 1"><path class="cls-1" d="M638.4,348V305.7a7.28,7.28,0,0,1-4,1.2c-7.8,0-7.8-10.3-15.5-10.3s-7.8,10.3-15.5,10.3-7.8-10.3-15.5-10.3-7.8,10.3-15.5,10.3-7.8-10.3-15.5-10.3-7.8,10.3-15.5,10.3-7.8-10.3-15.5-10.3-7.8,10.3-15.5,10.3-7.8-10.3-15.5-10.3-7.8,10.3-15.5,10.3-7.8-10.3-15.5-10.3-7.8,10.3-15.5,10.3-7.8-10.3-15.5-10.3-7.8,10.3-15.5,10.3-7.8-10.3-15.5-10.3-7.8,10.3-15.5,10.3-7.8-10.3-15.5-10.3-7.8,10.3-15.5,10.3-7.8-10.3-15.5-10.3-7.8,10.3-15.5,10.3h-.1V348Z" transform="translate(-324.3 -296.6)"/></g></g></svg>