<svg xmlns="http://www.w3.org/2000/svg" viewBox="0 0 460.99 229.78"><defs><style>.cls-1{fill:#231f20;}</style></defs><title>Asset 1</title><g id="Layer_2" data-name="Layer 2"><g id="Layer_2-2" data-name="Layer 2"><path class="cls-1" d="M193.5,153.5c-.77,4.19-1.5,9.33-2.12,14.26-1-5.45-2-11.17-3-15.58l-33-148.42H109.83L76.45,152.18c-.92,4.41-2,10.13-3,15.58-.63-4.93-1.36-10.07-2.13-14.26L44.14,6.08l-.43-2.32H0L45.93,226H95.57L128.31,82.35c1.49-6.45,2.79-13.32,3.81-19.27,1,6,2.33,12.82,3.81,19.26L168.68,226h49.95L264.25,3.76H221.16Z"/><path class="cls-1" d="M423.83,148.78c-4.92,22.75-19.55,43.09-48.82,43.09-18.05,0-32.92-7.72-43-22.33-9.53-13.79-14.56-32.9-14.56-55.28,0-36.91,15.12-76.35,57.57-76.35,25.94,0,43.59,15.65,49,42.54L461,56.35a88.52,88.52,0,0,0-24.47-33.91A92.94,92.94,0,0,0,375,0c-27.68,0-52.87,10.82-70.95,30.46-19.12,20.78-29.23,49.76-29.23,83.8,0,34.24,10.1,63.47,29.22,84.54,18.12,20,43.33,31,71,31a92.36,92.36,0,0,0,85.74-56.92Z"/></g></g></svg>